<svg width="30" height="24" viewBox="0 0 30 24" fill="none" xmlns="http://www.w3.org/2000/svg">
<path fill-rule="evenodd" clip-rule="evenodd" d="M19.5 0C21.459 0 23.127 1.2525 23.745 3H10.5C8.51088 3 6.60322 3.79018 5.1967 5.1967C3.79018 6.60322 3 8.51088 3 10.5V17.745C2.12239 17.4345 1.36263 16.8595 0.82536 16.0993C0.288089 15.339 -0.000268392 14.4309 1.87448e-07 13.5V4.5C1.87448e-07 3.30653 0.474106 2.16193 1.31802 1.31802C2.16193 0.474106 3.30653 0 4.5 0H19.5ZM25.5 6H10.5C9.30653 6 8.16193 6.47411 7.31802 7.31802C6.47411 8.16193 6 9.30653 6 10.5V19.5C6 20.6935 6.47411 21.8381 7.31802 22.682C8.16193 23.5259 9.30653 24 10.5 24H25.5C26.6935 24 27.8381 23.5259 28.682 22.682C29.5259 21.8381 30 20.6935 30 19.5V10.5C30 9.30653 29.5259 8.16193 28.682 7.31802C27.8381 6.47411 26.6935 6 25.5 6ZM21 15C21 15.7956 20.6839 16.5587 20.1213 17.1213C19.5587 17.6839 18.7956 18 18 18C17.2044 18 16.4413 17.6839 15.8787 17.1213C15.3161 16.5587 15 15.7956 15 15C15 14.2044 15.3161 13.4413 15.8787 12.8787C16.4413 12.3161 17.2044 12 18 12C18.7956 12 19.5587 12.3161 20.1213 12.8787C20.6839 13.4413 21 14.2044 21 15Z" fill="white"/>
</svg>
