<svg width="24" height="24" viewBox="0 0 24 24" fill="none" xmlns="http://www.w3.org/2000/svg">
<g opacity="0.7">
<path d="M22.334 0.333496H15.6673C14.9309 0.333496 14.334 0.930449 14.334 1.66683V8.33348C14.334 9.06986 14.9309 9.66681 15.6673 9.66681H22.334C23.0703 9.66681 23.6673 9.06986 23.6673 8.33348V1.66683C23.6673 0.930449 23.0703 0.333496 22.334 0.333496Z" fill="white"/>
<path d="M7.99999 14.667H1.33333C0.596953 14.667 0 15.2639 0 16.0003V22.667C0 23.4034 0.596953 24.0003 1.33333 24.0003H7.99999C8.73637 24.0003 9.33332 23.4034 9.33332 22.667V16.0003C9.33332 15.2639 8.73637 14.667 7.99999 14.667Z" fill="white"/>
<path d="M4.66666 9.66681C5.27949 9.66681 5.88633 9.54611 6.45251 9.31159C7.0187 9.07706 7.53315 8.73332 7.96649 8.29998C8.39983 7.86664 8.74357 7.35219 8.97809 6.78601C9.21261 6.21982 9.33332 5.61299 9.33332 5.00015C9.33332 4.38732 9.21261 3.78049 8.97809 3.2143C8.74357 2.64812 8.39983 2.13367 7.96649 1.70033C7.53315 1.26699 7.0187 0.923246 6.45251 0.688724C5.88633 0.454203 5.27949 0.333496 4.66666 0.333496C3.42898 0.333496 2.242 0.825161 1.36683 1.70033C0.491665 2.5755 0 3.76248 0 5.00015C0 6.23783 0.491665 7.42481 1.36683 8.29998C2.242 9.17515 3.42898 9.66681 4.66666 9.66681Z" fill="white"/>
<path d="M23.6673 22.667L19.0006 14.667L14.334 22.667C14.334 23.4034 14.9309 24.0003 15.6673 24.0003H22.334C23.0703 24.0003 23.6673 23.4034 23.6673 22.667Z" fill="white"/>
</g>
</svg>
