<svg width="592" height="547" viewBox="0 0 592 547" fill="none" xmlns="http://www.w3.org/2000/svg">
<g opacity="0.1">
<path d="M574.302 207.359C574.302 207.359 576.37 216.25 569.514 226.176C569.514 226.176 580.714 225.834 586.101 233.189C586.101 233.189 584.306 222.498 592.001 214.372C592.001 214.372 581.484 216.254 574.302 207.359Z" fill="white"/>
</g>
<path d="M6.80477 344.569C6.80477 344.569 9.74336 357.205 0 371.312C0 371.312 15.9185 370.826 23.5738 381.28C23.5738 381.28 21.0221 366.085 31.9584 354.537C31.9584 354.537 17.012 357.211 6.80477 344.569Z" fill="white"/>
<g opacity="0.6">
<path d="M540.753 343.535C540.753 343.535 542.821 352.426 535.965 362.352C535.965 362.352 547.166 362.01 552.552 369.365C552.552 369.365 550.757 358.674 558.452 350.548C558.452 350.548 547.935 352.43 540.753 343.535Z" fill="white"/>
</g>
<g opacity="0.300003">
<g opacity="0.300003">
<path opacity="0.300003" d="M557.978 525.308C557.978 534.546 441.3 542.034 297.371 542.034C153.442 542.034 36.7637 534.546 36.7637 525.308C36.7637 516.07 153.442 508.582 297.371 508.582C441.3 508.582 557.978 516.07 557.978 525.308Z" fill="#000072"/>
</g>
</g>
<path d="M516.738 504.386C506.395 516.381 491.223 523.129 475.379 523.129H119.361C103.518 523.129 88.3455 516.381 78.0033 504.386C72.2896 497.754 68.0655 490.368 65.2245 482.81C65.2139 482.81 65.2139 482.81 65.2139 482.8C56.2762 459.085 60.8302 433.636 75.088 424.482C99.0282 409.091 117.489 427.899 117.489 427.899C119.532 423.098 122.298 418.937 125.394 415.371C137.056 401.896 153.399 396.765 153.399 396.765C144.515 345.792 164.348 299.608 164.348 299.608C164.348 299.608 213.218 336.553 297.37 336.553C381.523 336.553 430.393 299.608 430.393 299.608C430.393 299.608 450.226 345.792 441.342 396.765C441.342 396.765 467.506 404.983 477.252 427.899C477.252 427.899 495.713 409.091 519.653 424.482C538.454 436.563 540.38 476.978 516.738 504.386Z" fill="#B11313"/>
<g opacity="0.300003">
<g opacity="0.300003">
<path opacity="0.300003" d="M131.682 474.893C134.981 442.95 117.488 429.166 117.488 429.166C119.531 424.366 122.298 420.204 125.394 416.639C152.526 449.102 131.682 474.893 131.682 474.893Z" fill="#000072"/>
</g>
</g>
<g opacity="0.300003">
<g opacity="0.300003">
<path opacity="0.300003" d="M463.154 474.893C459.856 442.95 477.348 429.166 477.348 429.166C475.305 424.366 472.539 420.204 469.443 416.639C442.31 449.102 463.154 474.893 463.154 474.893Z" fill="#000072"/>
</g>
</g>
<g opacity="0.300003">
<g opacity="0.300003">
<path opacity="0.300003" d="M465.924 501.706C463.389 501.074 460.776 500.857 458.179 501.143C454.479 501.549 448.113 502.179 438.776 502.879C424.722 503.933 412.449 493.369 411.489 479.304C411.077 473.261 411.981 468.57 412.309 467.118C408.639 482.812 401.862 497.27 397.73 505.2C376.755 506.074 350.188 506.786 317.336 506.995C315.564 443.494 352.44 383.951 352.44 383.951C295.938 429.166 242.391 383.951 242.391 383.951C279.674 450.15 277.733 504.237 277.733 504.237L284.012 507.03C248.136 506.879 219.444 506.132 197.1 505.2C192.968 497.271 186.191 482.812 182.521 467.118C182.862 468.628 183.826 473.643 183.284 480.038C182.118 493.802 169.834 503.913 156.064 502.88C146.721 502.18 140.353 501.549 136.651 501.143C134.054 500.857 131.441 501.074 128.906 501.706C88.3967 511.795 65.9492 484.966 65.2266 484.077C68.0675 491.635 72.2916 499.021 78.0053 505.653C88.3475 517.648 103.52 524.396 119.363 524.396H297.415H475.467C491.31 524.396 506.483 517.648 516.825 505.653C522.538 499.021 526.763 491.635 529.603 484.077C528.881 484.966 506.433 511.795 465.924 501.706Z" fill="#000072"/>
</g>
</g>
<g opacity="0.300003">
<g opacity="0.300003">
<path opacity="0.300003" d="M182.524 467.119C182.454 466.813 182.41 466.646 182.41 466.646C182.447 466.804 182.487 466.961 182.524 467.119Z" fill="#000072"/>
</g>
</g>
<g opacity="0.300003">
<g opacity="0.300003">
<path opacity="0.300003" d="M412.311 467.119C412.348 466.961 412.388 466.804 412.424 466.646C412.424 466.646 412.38 466.813 412.311 467.119Z" fill="#000072"/>
</g>
</g>
<path d="M297.336 520.706H475.389C490.325 520.706 504.382 514.341 513.956 503.243C526.324 488.905 532.423 469.051 529.874 451.427C528.38 441.109 523.933 432.88 517.671 428.854C496.498 415.238 480.557 431.077 479.889 431.757C479.027 432.636 477.784 433.029 476.572 432.797C475.361 432.569 474.345 431.749 473.863 430.617C464.886 409.504 440.488 401.636 440.243 401.559C438.477 401.005 437.395 399.228 437.713 397.404C444.779 356.896 433.108 318.996 428.639 306.578C415.259 315.329 369.217 341.514 297.379 341.514C225.541 341.514 179.498 315.329 166.119 306.578C161.65 318.996 149.978 356.896 157.044 397.404C157.362 399.228 156.28 401.005 154.514 401.559C154.273 401.636 129.836 409.588 120.894 430.617C120.412 431.749 119.396 432.569 118.186 432.797C116.976 433.028 115.73 432.636 114.868 431.757C114.202 431.088 98.1238 415.324 77.0862 428.854C70.8247 432.88 66.3769 441.109 64.8843 451.427C62.3345 469.051 68.4332 488.906 80.8013 503.243C90.3755 514.341 104.433 520.706 119.369 520.706H297.336ZM475.389 528.086H119.369C102.286 528.086 86.1926 520.788 75.2163 508.064C61.4929 492.156 54.7362 470.049 57.5833 450.37C59.4085 437.752 64.9182 427.906 73.0972 422.646C92.5627 410.13 108.987 418.304 116.204 423.395C125.359 406.627 142.345 398.403 149.277 395.626C141.557 345.409 160.154 301.307 160.966 299.418C161.413 298.376 162.315 297.598 163.41 297.308C164.508 297.017 165.675 297.247 166.579 297.931C167.057 298.29 215.586 334.134 297.379 334.134C379.171 334.134 427.701 298.29 428.181 297.929C429.086 297.247 430.256 297.018 431.349 297.309C432.444 297.6 433.345 298.377 433.792 299.418C434.603 301.307 453.2 345.409 445.48 395.626C452.413 398.403 469.399 406.627 478.553 423.395C485.769 418.304 502.193 410.126 521.66 422.646C529.839 427.906 535.349 437.751 537.175 450.37C540.022 470.048 533.265 492.156 519.541 508.064C508.565 520.788 492.471 528.086 475.389 528.086Z" fill="#000072"/>
<path d="M119.635 426.162C120.039 426.438 120.228 426.59 120.507 426.796C120.771 426.992 120.984 427.179 121.226 427.373C121.705 427.76 122.11 428.168 122.544 428.571C122.988 428.966 123.354 429.403 123.753 429.825C124.155 430.245 124.532 430.678 124.886 431.125C126.356 432.888 127.591 434.787 128.693 436.748C130.902 440.671 132.369 444.9 133.389 449.158C134.383 453.434 134.751 457.775 134.751 462.062C134.759 464.204 134.52 466.34 134.374 468.451C134.056 470.56 133.709 472.651 133.268 474.713C133.183 475.106 132.796 475.357 132.403 475.273C132.104 475.209 131.888 474.97 131.838 474.687L131.83 474.635C131.468 472.564 131.243 470.522 130.971 468.499L130.443 465.488C130.249 464.492 130.177 463.487 129.912 462.509C129.417 460.554 129.151 458.577 128.526 456.688C128.254 455.737 128.04 454.773 127.743 453.838L126.792 451.061C125.48 447.396 123.877 443.892 121.945 440.652C121.443 439.858 120.972 439.037 120.425 438.285L119.635 437.13L118.788 436.034C118.251 435.278 117.628 434.613 117.045 433.931C116.744 433.607 116.446 433.256 116.143 432.967C115.997 432.819 115.841 432.644 115.703 432.515C115.581 432.396 115.38 432.208 115.366 432.181L114.57 430.581C113.715 428.864 114.414 426.778 116.131 425.923C117.294 425.344 118.63 425.481 119.635 426.162Z" fill="#000072"/>
<path d="M479.305 432.181C479.291 432.208 479.09 432.396 478.968 432.515C478.83 432.644 478.674 432.819 478.529 432.968C478.225 433.256 477.927 433.607 477.626 433.931C477.043 434.614 476.42 435.278 475.883 436.034L475.036 437.131L474.246 438.285C473.699 439.037 473.229 439.859 472.726 440.653C470.794 443.892 469.191 447.397 467.879 451.061L466.928 453.838C466.631 454.773 466.418 455.737 466.145 456.688C465.52 458.577 465.255 460.554 464.759 462.51C464.494 463.487 464.422 464.492 464.229 465.488L463.7 468.499C463.429 470.523 463.203 472.564 462.842 474.635L462.833 474.686C462.764 475.082 462.387 475.347 461.991 475.278C461.69 475.226 461.464 474.995 461.404 474.713C460.962 472.651 460.615 470.56 460.297 468.451C460.151 466.34 459.912 464.204 459.92 462.062C459.921 457.775 460.288 453.434 461.282 449.158C462.303 444.9 463.77 440.671 465.978 436.748C467.08 434.787 468.316 432.888 469.786 431.125C470.139 430.679 470.516 430.245 470.918 429.825C471.317 429.403 471.683 428.966 472.127 428.571C472.561 428.168 472.966 427.761 473.445 427.373C473.687 427.179 473.9 426.992 474.165 426.796C474.443 426.59 474.632 426.438 475.037 426.162C476.622 425.081 478.782 425.491 479.862 427.077C480.594 428.151 480.642 429.49 480.104 430.577L479.305 432.181Z" fill="#000072"/>
<path d="M157.072 397.6L157.373 400.549L157.748 403.846C157.881 404.97 158.057 406.097 158.154 407.281C158.262 408.461 158.326 409.684 158.266 411.005L158.266 411.011C158.257 411.218 158.081 411.379 157.873 411.37C157.798 411.366 157.73 411.342 157.673 411.301C156.59 410.538 155.657 409.662 154.85 408.708C154.024 407.76 153.347 406.726 152.688 405.666C152.043 404.599 151.456 403.49 150.945 402.328C150.704 401.742 150.455 401.152 150.262 400.531C150.157 400.224 150.063 399.907 149.979 399.582C149.888 399.231 149.826 398.974 149.747 398.476C149.427 396.463 150.8 394.57 152.813 394.251C154.826 393.93 156.718 395.303 157.037 397.317C157.048 397.382 157.056 397.446 157.063 397.51L157.072 397.6Z" fill="#000072"/>
<path d="M445.096 398.476C445.017 398.974 444.956 399.231 444.865 399.582C444.781 399.907 444.686 400.224 444.582 400.531C444.389 401.153 444.139 401.742 443.899 402.328C443.388 403.49 442.801 404.599 442.156 405.666C441.496 406.726 440.82 407.76 439.994 408.708C439.187 409.662 438.254 410.538 437.17 411.301C437.001 411.421 436.766 411.38 436.646 411.21C436.603 411.149 436.581 411.08 436.578 411.01L436.578 411.005C436.518 409.684 436.582 408.461 436.69 407.281C436.787 406.097 436.963 404.97 437.095 403.846L437.471 400.549L437.772 397.6L437.779 397.522C437.986 395.494 439.798 394.017 441.826 394.224C443.854 394.43 445.33 396.243 445.123 398.271C445.116 398.336 445.106 398.413 445.096 398.476Z" fill="#000072"/>
<path d="M174.97 434.174C174.97 434.174 158.085 421.074 153.411 398.038C153.411 398.038 143.696 393.127 136.982 406.416C136.982 406.416 144.727 446.985 182.414 466.646C182.414 466.646 176.969 445.76 174.97 434.174Z" fill="#0096F2"/>
<path d="M140.882 406.944C142.403 413.139 150.594 441.428 176.662 458.943C175.012 452.248 172.826 442.996 171.573 436.147C167.662 432.758 154.935 420.493 150.259 400.884C148.136 400.518 144.313 400.945 140.882 406.944ZM182.411 470.335C181.829 470.335 181.244 470.197 180.706 469.918C141.883 449.664 133.687 408.836 133.356 407.108C133.204 406.308 133.32 405.479 133.688 404.752C137.882 396.451 143.365 394.098 147.227 393.586C151.5 393.015 154.719 394.566 155.072 394.745C156.079 395.255 156.799 396.197 157.023 397.304C161.351 418.637 177.075 431.138 177.233 431.262C177.955 431.826 178.447 432.643 178.602 433.547C180.551 444.845 185.927 465.507 185.981 465.714C186.349 467.126 185.85 468.622 184.71 469.532C184.043 470.063 183.23 470.335 182.411 470.335Z" fill="#000072"/>
<path d="M419.874 434.174C419.874 434.174 436.759 421.074 441.433 398.038C441.433 398.038 451.148 393.127 457.862 406.416C457.862 406.416 450.117 446.985 412.43 466.646C412.43 466.646 417.876 445.76 419.874 434.174Z" fill="#0096F2"/>
<path d="M423.266 436.147C422.012 442.997 419.826 452.248 418.176 458.944C444.243 441.429 452.434 413.144 453.957 406.943C451.879 403.301 449.421 401.27 446.642 400.902C445.862 400.798 445.148 400.842 444.567 400.933C439.882 420.515 427.173 432.76 423.266 436.147ZM412.427 470.335C411.609 470.335 410.796 470.063 410.129 469.532C408.988 468.622 408.49 467.125 408.858 465.714C408.912 465.507 414.287 444.845 416.236 433.546C416.392 432.64 416.88 431.826 417.605 431.262C417.763 431.138 433.487 418.637 437.816 397.304C438.04 396.197 438.759 395.255 439.767 394.745C440.119 394.567 443.337 393.015 447.611 393.586C451.473 394.098 456.957 396.451 461.15 404.752C461.518 405.48 461.635 406.308 461.482 407.108C461.152 408.836 452.956 449.664 414.133 469.918C413.595 470.197 413.01 470.335 412.427 470.335Z" fill="#000072"/>
<path d="M225.842 339.918C225.842 339.918 232.182 357.896 230.357 384.125L251.246 402.307C251.246 402.307 256.706 370.618 247.408 344.3L225.842 339.918Z" fill="#0096F2"/>
<path d="M234.157 382.538L248.441 394.97C249.408 384.858 250.233 365.032 244.595 347.492L231.029 344.735C232.782 352.033 235.122 365.459 234.157 382.538ZM251.251 405.997C250.374 405.997 249.511 405.684 248.829 405.09L227.94 386.908C227.068 386.149 226.602 385.023 226.682 383.869C228.425 358.804 222.426 341.315 222.366 341.141C221.927 339.888 222.194 338.494 223.067 337.494C223.939 336.495 225.282 336.043 226.58 336.301L248.145 340.682C249.416 340.94 250.457 341.847 250.889 343.069C260.399 369.986 255.114 401.601 254.885 402.933C254.659 404.246 253.742 405.336 252.487 405.782C252.084 405.926 251.666 405.997 251.251 405.997Z" fill="#000072"/>
<path d="M368.997 339.918C368.997 339.918 362.657 357.896 364.481 384.125L343.592 402.307C343.592 402.307 338.133 370.618 347.431 344.3L368.997 339.918Z" fill="#0096F2"/>
<path d="M350.242 347.492C344.594 365.064 345.422 384.873 346.393 394.974L360.68 382.538C359.716 365.459 362.056 352.034 363.809 344.736L350.242 347.492ZM343.587 405.997C343.172 405.997 342.754 405.926 342.351 405.783C341.095 405.336 340.179 404.247 339.953 402.934C339.723 401.601 334.439 369.987 343.949 343.069C344.381 341.847 345.422 340.941 346.692 340.683L368.258 336.302C369.56 336.033 370.903 336.494 371.775 337.496C372.646 338.498 372.912 339.891 372.471 341.143C372.375 341.42 366.419 358.88 368.156 383.87C368.236 385.023 367.77 386.149 366.897 386.909L346.009 405.091C345.327 405.684 344.464 405.997 343.587 405.997Z" fill="#000072"/>
<path d="M276.587 512.87C271.331 538.692 241.368 550.506 220.311 534.679C203.83 522.3 185.731 493.987 174.548 431.902C173.484 425.952 172.473 419.683 171.537 413.094L178.655 406.346L225.844 361.578C225.844 361.578 272.331 433.573 277.481 488.761V488.772C278.289 497.319 278.098 505.462 276.587 512.87Z" fill="#B11313"/>
<g opacity="0.300003">
<g opacity="0.300003">
<path opacity="0.300003" d="M276.588 512.87C271.332 538.692 241.369 550.506 220.312 534.679C203.831 522.3 185.732 493.987 174.549 431.902C158.812 422.418 153.407 398.033 153.407 398.033C146.619 365.654 154.45 335.809 154.45 335.809C152.96 375.22 168.597 394.02 175.046 400.055C176.844 401.736 178.1 403.905 178.647 406.305C178.65 406.319 178.653 406.332 178.656 406.346C190.179 457.351 209.481 519.49 237.485 523.939C264.522 528.229 276.173 492.998 277.482 488.772C278.29 497.319 278.099 505.462 276.588 512.87Z" fill="#000072"/>
</g>
</g>
<path d="M229.885 358.135C235.258 363.989 239.507 370.519 243.359 377.265C245.271 380.646 247.014 384.114 248.747 387.588C250.48 391.062 252.177 394.555 253.83 398.07C260.453 412.122 266.483 426.491 271.492 441.298C276.505 456.087 280.542 471.367 282.014 487.276C282.722 495.218 282.766 503.345 281.417 511.48C281.124 513.477 280.698 515.621 280.041 517.684C279.445 519.764 278.6 521.769 277.685 523.735C275.775 527.634 273.231 531.23 270.196 534.34C264.064 540.499 255.962 544.652 247.36 545.873C243.07 546.544 238.664 546.398 234.389 545.64C230.116 544.828 225.99 543.293 222.219 541.18C220.374 540.089 218.516 538.888 216.913 537.566L214.508 535.593C213.696 534.945 212.999 534.192 212.241 533.495C211.509 532.776 210.729 532.094 210.039 531.341L207.982 529.075C206.562 527.597 205.384 525.955 204.11 524.379C199.186 517.955 195.258 510.97 191.811 503.848C188.307 496.732 185.628 489.331 183.033 481.934C180.626 474.48 178.432 466.975 176.628 459.394C175.737 455.603 174.779 451.824 174.051 448.004C173.302 444.189 172.404 440.399 171.859 436.552C170.653 428.876 170.087 421.095 170.75 413.203C170.788 412.756 171.18 412.425 171.626 412.463C171.937 412.489 172.192 412.688 172.305 412.957L172.315 412.98C173.848 416.648 175.008 420.348 176.009 424.069C176.994 427.792 178.015 431.492 178.789 435.237C179.529 438.991 180.396 442.706 181.212 446.436C181.987 450.178 182.986 453.855 183.918 457.55C185.803 464.935 188.058 472.196 190.503 479.37C193.125 486.463 195.819 493.545 199.245 500.21C202.6 506.9 206.427 513.321 210.925 519.104C212.086 520.51 213.164 522.006 214.434 523.293L216.275 525.293C216.89 525.957 217.575 526.534 218.22 527.161C218.885 527.76 219.502 528.428 220.205 528.972L222.282 530.648C223.658 531.77 225.064 532.638 226.532 533.506C229.497 535.128 232.692 536.285 235.994 536.888C239.299 537.437 242.7 537.54 246.022 536.984C252.69 535.998 258.962 532.681 263.674 527.908C266.022 525.508 267.992 522.742 269.481 519.727C270.187 518.201 270.859 516.651 271.323 515.023C271.843 513.415 272.176 511.769 272.444 509.956C273.64 502.88 273.652 495.468 273.007 488.077C272.354 480.676 271.04 473.266 269.339 465.922C267.649 458.572 265.536 451.283 263.184 444.061C258.471 429.613 252.711 415.446 246.343 401.553C244.753 398.077 243.12 394.621 241.451 391.181C239.79 387.736 238.041 384.336 236.421 380.868C233.15 373.948 230.068 366.916 227.637 359.48L227.629 359.456C227.399 358.753 227.782 357.998 228.484 357.768C228.998 357.599 229.542 357.761 229.885 358.135Z" fill="#000072"/>
<path d="M184.871 478.579C183.878 478.579 182.887 478.181 182.16 477.393C180.779 475.896 180.871 473.565 182.366 472.182C183.734 470.916 216.452 441.143 266.544 437.397C268.569 437.233 270.345 438.769 270.497 440.801C270.649 442.833 269.125 444.604 267.093 444.756C219.659 448.303 187.689 477.31 187.372 477.602C186.663 478.256 185.765 478.579 184.871 478.579Z" fill="#000072"/>
<path d="M318.255 512.87C323.512 538.692 353.474 550.507 374.531 534.679C391.013 522.301 409.111 493.988 420.294 431.902C421.358 425.952 422.369 419.683 423.305 413.094L416.187 406.346L368.998 361.578C368.998 361.578 322.512 433.573 317.362 488.762V488.772C316.553 497.319 316.745 505.462 318.255 512.87Z" fill="#B11313"/>
<g opacity="0.300003">
<g opacity="0.300003">
<path opacity="0.300003" d="M318.254 512.87C323.51 538.692 353.472 550.506 374.529 534.679C391.011 522.3 409.11 493.987 420.292 431.902C436.029 422.418 441.434 398.033 441.434 398.033C448.223 365.654 440.391 335.809 440.391 335.809C441.882 375.22 426.245 394.02 419.795 400.055C417.998 401.736 416.742 403.905 416.195 406.305C416.191 406.319 416.188 406.332 416.185 406.346C404.662 457.351 385.361 519.49 357.356 523.939C330.319 528.229 318.668 492.998 317.36 488.772C316.551 497.319 316.743 505.462 318.254 512.87Z" fill="#000072"/>
</g>
</g>
<path d="M367.202 359.48C364.771 366.915 361.689 373.948 358.418 380.868C356.797 384.336 355.049 387.736 353.388 391.181C351.719 394.621 350.085 398.077 348.496 401.553C342.128 415.446 336.368 429.613 331.654 444.061C329.303 451.283 327.19 458.572 325.5 465.922C323.799 473.266 322.485 480.675 321.831 488.077C321.187 495.468 321.199 502.88 322.395 509.956C322.663 511.769 322.995 513.415 323.516 515.023C323.979 516.651 324.652 518.201 325.357 519.727C326.847 522.742 328.817 525.507 331.165 527.908C335.876 532.681 342.149 535.998 348.816 536.984C352.139 537.54 355.54 537.437 358.845 536.888C362.147 536.285 365.341 535.128 368.306 533.505C369.775 532.638 371.181 531.77 372.557 530.648L374.634 528.972C375.337 528.428 375.953 527.759 376.619 527.161C377.264 526.534 377.949 525.957 378.564 525.293L380.404 523.293C381.675 522.006 382.752 520.51 383.914 519.103C388.412 513.321 392.239 506.9 395.594 500.21C399.02 493.545 401.714 486.463 404.336 479.37C406.78 472.196 409.036 464.935 410.921 457.55C411.853 453.855 412.852 450.178 413.627 446.436C414.443 442.706 415.31 438.991 416.05 435.237C416.824 431.492 417.845 427.792 418.83 424.069C419.831 420.348 420.991 416.647 422.524 412.98L422.534 412.957C422.706 412.545 423.181 412.35 423.594 412.522C423.882 412.643 424.063 412.912 424.089 413.203C424.752 421.095 424.186 428.876 422.979 436.552C422.435 440.399 421.537 444.189 420.788 448.004C420.06 451.824 419.102 455.603 418.211 459.395C416.407 466.975 414.213 474.48 411.806 481.934C409.211 489.331 406.532 496.732 403.028 503.848C399.58 510.97 395.653 517.955 390.729 524.379C389.455 525.955 388.277 527.597 386.857 529.075L384.8 531.341C384.11 532.094 383.33 532.776 382.598 533.495C381.839 534.192 381.142 534.945 380.33 535.593L377.926 537.566C376.323 538.888 374.465 540.089 372.62 541.18C368.848 543.293 364.722 544.828 360.45 545.639C356.175 546.398 351.769 546.544 347.479 545.873C338.877 544.653 330.775 540.499 324.643 534.34C321.608 531.23 319.064 527.634 317.154 523.735C316.239 521.769 315.394 519.764 314.798 517.684C314.141 515.621 313.714 513.476 313.422 511.48C312.073 503.345 312.117 495.218 312.825 487.276C314.297 471.367 318.334 456.086 323.347 441.298C328.356 426.492 334.386 412.122 341.008 398.069C342.662 394.555 344.359 391.062 346.091 387.588C347.824 384.114 349.568 380.645 351.48 377.265C355.332 370.519 359.58 363.989 364.953 358.135C365.453 357.59 366.299 357.554 366.843 358.054C367.242 358.42 367.368 358.972 367.211 359.455L367.202 359.48Z" fill="#000072"/>
<path d="M409.969 478.582C409.074 478.582 408.177 478.258 407.468 477.602C407.15 477.31 375.18 448.304 327.746 444.756C325.714 444.604 324.191 442.833 324.342 440.801C324.494 438.769 326.267 437.235 328.295 437.397C378.388 441.143 411.105 470.917 412.474 472.183C413.969 473.566 414.061 475.901 412.678 477.397C411.951 478.183 410.962 478.582 409.969 478.582Z" fill="#000072"/>
<path d="M297.473 325.935C393.94 325.935 432.243 283.779 432.243 283.779C432.243 283.779 433.851 287.409 434.633 292.568C435.928 301.11 432.302 309.679 425.397 314.868C410.218 326.275 371.568 348.012 297.423 348.012C223.278 348.012 184.628 326.275 169.449 314.868C162.544 309.679 158.917 301.11 160.213 292.568C160.995 287.409 162.602 283.779 162.602 283.779C162.602 283.779 200.905 325.935 297.373 325.935" fill="#751313"/>
<g opacity="0.300003">
<g opacity="0.300003">
<path opacity="0.300003" d="M434.284 290.59C433.043 295.947 429.935 300.816 425.401 304.224C410.222 315.631 371.571 337.367 297.427 337.367C223.282 337.367 184.631 315.631 169.453 304.224C164.918 300.816 161.81 295.947 160.569 290.59C160.441 291.219 160.321 291.878 160.217 292.567C158.921 301.109 162.547 309.678 169.453 314.868C184.631 326.275 223.282 348.011 297.427 348.011C371.571 348.011 410.222 326.275 425.401 314.868C432.306 309.678 435.932 301.109 434.637 292.567C434.532 291.878 434.412 291.219 434.284 290.59Z" fill="#000072"/>
</g>
</g>
<path d="M297.418 351.702C223.373 351.702 184.068 330.473 167.229 317.818C159.156 311.75 155.068 301.863 156.562 292.015C157.408 286.43 159.151 282.451 159.225 282.285C159.73 281.144 160.777 280.335 162.008 280.137C163.238 279.935 164.488 280.374 165.327 281.297C165.697 281.701 203.935 322.245 297.369 322.245V329.625C217.568 329.625 177.088 301.466 164.352 290.5C164.169 291.309 163.997 292.188 163.855 293.121C162.769 300.281 165.76 307.484 171.66 311.919C187.763 324.02 225.515 344.322 297.418 344.322C369.322 344.322 407.074 324.02 423.177 311.919C429.077 307.484 432.067 300.282 430.982 293.121C430.84 292.188 430.668 291.309 430.484 290.5C417.748 301.466 377.269 329.625 297.468 329.625V322.245C391.219 322.245 429.137 281.706 429.51 281.297C430.349 280.374 431.598 279.937 432.828 280.137C434.059 280.335 435.106 281.144 435.612 282.285C435.686 282.451 437.429 286.43 438.275 292.015C439.769 301.863 435.681 311.751 427.608 317.818C410.769 330.473 371.464 351.702 297.418 351.702Z" fill="#000072"/>
<g opacity="0.3">
<path d="M5.81343 47.5563C5.81343 47.5563 7.88123 56.447 1.02539 66.3732C1.02539 66.3732 12.226 66.0311 17.6127 73.3867C17.6127 73.3867 15.817 62.6954 23.5122 54.57C23.5122 54.57 12.9955 56.4516 5.81343 47.5563Z" fill="white"/>
</g>
<path d="M162.68 314.977L222.159 450.424" stroke="#000072" stroke-width="3" stroke-miterlimit="10"/>
<path d="M370.098 450.423L430.839 314.977" stroke="#000072" stroke-width="3" stroke-miterlimit="10"/>
<path fill-rule="evenodd" clip-rule="evenodd" d="M293.05 370.289C293.025 370.615 292.828 370.908 292.696 371.229C292.568 371.539 292.451 371.872 292.341 372.198C292.054 373.048 291.785 373.886 291.809 374.987C292.79 375.116 294.027 375.02 294.912 374.896C295.395 375.111 295.706 375.444 296.152 375.684C296.068 375.273 296.471 375.195 296.817 375.078C296.664 375.256 296.425 375.375 296.507 375.714C296.709 375.806 296.741 375.562 296.906 375.532C297.134 375.71 297.423 375.7 297.659 375.532C297.829 375.558 297.783 375.731 297.97 375.745C298.233 375.509 297.857 375.253 297.748 375.078C298.077 375.196 298.451 375.284 298.413 375.654C298.771 375.504 299.207 375.146 299.565 374.896C300.488 375.029 301.668 375.091 302.756 375.017C302.719 373.173 302.065 371.752 301.426 370.319C301.603 370.304 301.602 370.463 301.648 370.531C302.307 371.507 302.894 372.621 303.376 373.805C303.446 373.977 303.564 374.211 303.642 374.441C303.71 374.643 303.854 374.995 303.819 375.108C303.743 375.357 303.143 375.44 303.022 375.654C302.653 375.356 301.59 375.441 300.584 375.411C300.299 375.402 299.917 375.347 299.742 375.381C299.356 375.456 299.187 375.842 298.989 376.048C299.535 376.073 299.966 375.711 300.451 375.684C300.759 375.666 301.209 375.825 301.603 375.896C302.746 376.103 304.021 376.278 305.061 376.502C305.123 374.065 304.208 372.034 302.978 370.38C304.2 371.534 305.023 372.884 305.637 374.472C305.743 374.746 305.833 375.008 305.903 375.29C306 375.687 306.003 376.177 306.301 376.472C305.934 376.746 305.492 376.969 305.105 377.23C304.016 376.785 301.912 376.145 300.141 376.26C299.717 376.287 299.342 376.432 299.033 376.623C299.574 376.771 299.949 376.785 300.673 376.775C300.853 376.772 301.113 376.721 301.249 376.745C301.403 376.771 301.65 376.989 301.869 377.139C303.149 378.014 304.294 378.655 305.814 379.351C306.288 379.569 306.556 379.79 307.099 379.503C307.189 382.379 306.072 384.502 304.706 386.443C304.547 386.669 304.446 386.932 304.174 387.11C305.201 385.453 305.991 383.48 305.991 381.17C305.991 380.927 306.059 380.626 305.991 380.412C305.895 380.109 305.198 379.787 304.794 379.533C303.649 378.81 302.738 378.303 301.471 377.624C301.222 377.491 301.011 377.311 300.806 377.26C300.59 377.206 300.249 377.195 300.008 377.169C299.706 377.136 299.416 377.128 299.166 377.108C299.656 377.468 300.433 377.915 301.116 378.26C301.241 378.337 301.371 378.233 301.515 378.23C301.677 381.608 301.311 384.917 299.92 387.383C299.587 387.971 299.22 388.549 298.634 388.989C300.524 386.656 300.666 382.65 300.274 379.139C300.676 378.901 300.501 378.703 300.141 378.412C299.747 378.093 299.048 377.628 298.59 377.472C298.558 377.63 298.637 377.785 298.723 377.927C298.809 378.069 299.001 378.193 299.033 378.321C299.1 378.592 298.939 379.187 298.856 379.503C298.582 380.548 298.004 381.696 297.482 382.473C297.298 382.457 297.427 382.228 297.305 382.17C297.108 382.177 297.227 382.4 297.127 382.473C296.517 381.761 295.996 380.583 295.709 379.503C295.607 379.117 295.447 378.652 295.532 378.321C295.599 378.057 296.014 377.818 295.975 377.502C295.57 377.566 295.191 377.842 294.867 378.078C294.544 378.314 294.209 378.567 293.981 378.836C294.008 378.969 294.197 378.991 294.247 379.109C293.956 382.662 293.966 386.66 295.931 388.959C295.724 388.94 295.627 388.76 295.532 388.656C293.702 386.655 293.211 383.569 293.006 380.382C292.961 379.677 292.914 378.988 293.05 378.291C293.088 378.144 293.316 378.361 293.449 378.26C294.148 377.9 294.779 377.492 295.443 377.108C294.865 377.169 294.235 377.15 293.715 377.29C293.263 377.412 292.769 377.749 292.341 377.987C291.04 378.712 289.67 379.499 288.574 380.321C288.35 383.026 289.256 385.205 290.347 387.11C288.773 385.013 287.314 382.68 287.466 379.503C288.066 379.892 288.978 379.259 289.46 379.018C290.802 378.347 292.235 377.481 293.272 376.745C294.022 376.82 294.904 376.759 295.532 376.654C294.749 375.971 292.742 376.314 291.543 376.563C290.739 376.73 289.989 376.97 289.505 377.23C289.045 377.019 288.693 376.734 288.264 376.502C288.578 375.963 288.645 375.057 288.884 374.441C289.47 372.936 290.384 371.604 291.499 370.38C291.469 370.613 291.234 370.813 291.1 371.016C290.129 372.494 289.49 374.325 289.46 376.472C290.485 376.313 291.707 376.117 292.917 375.896C293.312 375.824 293.72 375.676 294.025 375.684C294.518 375.696 294.981 376.044 295.532 376.048C295.401 375.763 295.151 375.56 294.867 375.381C293.954 375.452 292.935 375.34 292.12 375.441C292.036 375.452 291.927 375.485 291.809 375.532C291.82 375.528 291.546 375.653 291.588 375.654C291.403 375.652 290.953 375.215 290.746 375.169C291.172 373.308 292.133 371.814 293.05 370.289Z" fill="#000072"/>
<path fill-rule="evenodd" clip-rule="evenodd" d="M297.424 351.702V404.035V351.702Z" fill="#000072"/>
<path d="M297.424 351.702V404.035" stroke="#000072" stroke-width="3" stroke-miterlimit="10"/>
<path d="M281.098 351.345C281.098 351.345 283.973 394.215 279.762 401.806" stroke="#000072" stroke-width="3" stroke-miterlimit="10"/>
<path d="M268.173 350.523C268.173 350.523 274.658 370.358 265.287 397.151" stroke="#000072" stroke-width="3" stroke-miterlimit="10"/>
<path d="M312.333 351.702C312.333 351.702 309.326 389.688 313.675 402.621" stroke="#000072" stroke-width="3" stroke-miterlimit="10"/>
<path d="M327.67 350.523C327.67 350.523 320.796 388.19 331.005 397.151" stroke="#000072" stroke-width="3" stroke-miterlimit="10"/>
<path d="M254.734 358.054C254.734 358.054 261.21 351.872 269.714 358.054C269.714 358.054 274.147 351.918 281.518 358.898C281.518 358.898 285.538 351.256 297.371 358.054C297.371 358.054 302.365 351.667 311.325 358.054C311.325 358.054 318.364 350.962 326.609 357.702C326.609 357.702 333.961 349.697 340.325 356.847" stroke="#000072" stroke-width="3" stroke-miterlimit="10"/>
<path d="M296.482 367.875C296.251 367.711 296.021 367.556 295.793 367.41C287.733 362.243 281.885 368.019 281.885 368.019C275.907 361.811 270.362 368.019 270.362 368.019C261.069 357.172 256.051 368.019 256.051 368.019" stroke="#000072" stroke-width="3" stroke-miterlimit="10"/>
<path d="M296.25 367.991C296.25 367.991 303.597 362.099 311.325 367.991C311.325 367.991 318.835 360.698 325.408 368.317C325.408 368.317 335.167 360.805 338.807 368.166" stroke="#000072" stroke-width="3" stroke-miterlimit="10"/>
<path d="M256.051 386.132C256.051 386.132 262.014 376.305 268.289 386.966C268.289 386.966 279.544 379.189 281.939 390.05C281.939 390.05 291.258 385.311 297.771 393.111C297.771 393.111 304.672 385.037 312.665 391.195C312.665 391.195 318.002 378.846 327.036 388.374C327.036 388.374 332.602 378.076 338.808 383.952" stroke="#000072" stroke-width="3" stroke-miterlimit="10"/>
<path d="M255.441 392.008C255.441 392.008 263.207 384.129 266.602 393.111C266.602 393.111 277.787 388.053 280.91 397.151C280.91 397.151 292.468 391.087 297.279 400.789C297.279 400.789 304.118 394.343 312.338 398.722C312.338 398.722 319.894 387.353 328.64 394.064C328.64 394.064 334.862 383.431 338.586 390.05" stroke="#000072" stroke-width="3" stroke-miterlimit="10"/>
<path d="M187.371 477.602C187.371 477.602 221.788 441.41 265.29 444.904L275.179 475.289C275.179 475.289 264.49 520.401 197.104 505.201L187.371 477.602Z" fill="#000072"/>
<path d="M187.371 477.602C187.371 477.602 221.788 441.41 265.29 444.904L275.179 475.289C275.179 475.289 264.49 520.401 197.104 505.201L187.371 477.602Z" stroke="#000072" stroke-width="3" stroke-miterlimit="10"/>
<path d="M318.074 482.756L328.208 439.65L375.964 454.175L404.419 470.335V482.756L397.737 505.2C397.737 505.2 349.927 520.945 318.074 482.756Z" fill="#000072"/>
<path d="M318.074 482.756L328.208 439.65L375.964 454.175L404.419 470.335V482.756L397.737 505.2C397.737 505.2 349.927 520.945 318.074 482.756Z" stroke="#000072" stroke-width="3" stroke-miterlimit="10"/>
<path d="M76.3965 425.346L113.161 520.706" stroke="#000072" stroke-width="3" stroke-miterlimit="10"/>
<path d="M66.8594 437.385C66.8594 437.385 73.212 481.526 100.943 519.987" stroke="#000072" stroke-width="3" stroke-miterlimit="10"/>
<path d="M91.3242 421.677C91.3242 421.677 120.039 470.444 124.476 521.477" stroke="#000072" stroke-width="3" stroke-miterlimit="10"/>
<path d="M109.748 425.346C109.748 425.346 127.164 460.076 136.982 520.706" stroke="#000072" stroke-width="3" stroke-miterlimit="10"/>
<path d="M62.957 457.982C62.957 457.982 63.0296 448.215 69.9701 452.002C69.9701 452.002 72.5527 434.922 83.8974 445.766C83.8974 445.766 84.3271 428.426 100.181 438.823C100.181 438.823 104.704 426.097 114.2 437.385C114.2 437.385 118.91 434.781 121.941 440.652" stroke="#000072" stroke-width="3" stroke-miterlimit="10"/>
<path d="M67.959 443.354C67.959 443.354 70.393 430.722 80.0826 434.908C80.0826 434.908 82.001 424.524 94.7787 427.977C94.7787 427.977 96.6588 421.186 111.821 429.866" stroke="#000072" stroke-width="3" stroke-miterlimit="10"/>
<path d="M64.3086 463.179C64.3086 463.179 64.8436 453.391 72.2455 460.201C72.2455 460.201 74.5776 443.255 87.5093 454.175C87.5093 454.175 87.8556 437.582 102.904 446.959C102.904 446.959 108.44 437.694 118.09 445.766C118.09 445.766 119.813 440.944 124.628 445.766" stroke="#000072" stroke-width="3" stroke-miterlimit="10"/>
<path d="M64.3086 471.577C64.3086 471.577 67.3127 462.165 75.5322 470.335C75.5322 470.335 80.562 454.968 91.3226 465.368C91.3226 465.368 95.6576 444.855 108.857 458.943C108.857 458.943 110.91 445.549 121.408 455.459C121.408 455.459 122.204 447.234 127.739 453.838" stroke="#000072" stroke-width="3" stroke-miterlimit="10"/>
<path d="M66.8594 478.686C66.8594 478.686 69.6545 470.934 77.7989 476.499C77.7989 476.499 86.6538 464.262 94.7801 473.026C94.7801 473.026 103.501 459.855 111.822 469.864C111.822 469.864 116.15 457.506 124.708 466.109C124.708 466.109 127.879 461.502 130.441 465.488" stroke="#000072" stroke-width="3" stroke-miterlimit="10"/>
<path d="M69.8027 487.811C69.8027 487.811 74.7255 479.366 81.0193 484.41C81.0193 484.41 86.5343 474.785 98.5519 482.803C98.5519 482.803 104.271 469.773 116.039 479.613C116.039 479.613 120.294 468.526 127.744 478.579C127.744 478.579 127.772 467.82 132.988 473.026" stroke="#000072" stroke-width="3" stroke-miterlimit="10"/>
<path d="M73.4199 498.458V495.749C73.4199 495.749 76.7177 485.87 84.614 492.315C84.614 492.315 92.7671 482.967 101.394 490.179C101.394 490.179 110.309 478.506 118.373 487.811C118.373 487.811 123.229 477.609 130.442 487.774" stroke="#000072" stroke-width="3" stroke-miterlimit="10"/>
<path d="M79.5645 501.771C79.5645 501.771 79.87 496.515 87.6927 498.458C87.6927 498.458 96.0777 492.103 104.415 498.027C104.415 498.027 110.297 487.59 120.28 495.501C120.28 495.501 127.192 487.368 131.922 494.256" stroke="#000072" stroke-width="3" stroke-miterlimit="10"/>
<path d="M83.9023 508.33C83.9023 508.33 86.9243 503.732 92.4538 506.993C92.4538 506.993 99.6331 500.026 107.427 505.824C107.427 505.824 112.848 497.605 121.969 503.519C121.969 503.519 127.752 496.024 133.524 501.771" stroke="#000072" stroke-width="3" stroke-miterlimit="10"/>
<path d="M89.8945 512.991C89.8945 512.991 90.843 508.123 96.0298 512.778C96.0298 512.778 102.089 508.886 109.75 512.991C109.75 512.991 118.106 507.752 123.367 511.877C123.367 511.877 130.208 506.736 134.753 511.643" stroke="#000072" stroke-width="3" stroke-miterlimit="10"/>
<path d="M98.6504 516.393C98.6504 516.393 102.68 512.161 111.822 517.229C111.822 517.229 116.84 514.165 121.436 515.245C122.092 515.399 122.74 515.638 123.364 515.983" stroke="#000072" stroke-width="3" stroke-miterlimit="10"/>
<path d="M124.051 517.258C124.051 517.258 128.699 513.202 136.596 515.995" stroke="#000072" stroke-width="3" stroke-miterlimit="10"/>
<path d="M132.989 471.603C131.602 474.756 136.984 524.378 136.984 524.378H204.116L202.687 520.705L187.375 491.487L177.791 464.04C156.072 460.96 134.754 410.08 134.754 410.08L119.637 426.161L123.367 434.907L130.445 451.271L132.989 471.603Z" fill="#000072"/>
<path d="M515.676 423.038L482.814 520.706" stroke="#000072" stroke-width="3" stroke-miterlimit="10"/>
<path d="M524.404 434.96C524.404 434.96 518.563 497.285 491.137 522.202" stroke="#000072" stroke-width="3" stroke-miterlimit="10"/>
<path d="M503.019 422.444C503.019 422.444 480.764 475.916 470.195 521.3" stroke="#000072" stroke-width="3" stroke-miterlimit="10"/>
<path d="M484.521 427.132C484.521 427.132 468.323 457.517 459.92 526.951" stroke="#000072" stroke-width="3" stroke-miterlimit="10"/>
<path d="M529.87 451.427C529.87 451.427 528.099 442.787 522.482 448.603C522.482 448.603 520.137 433.159 509.062 442.695C509.062 442.695 505.936 429.533 496.216 439.65C496.216 439.65 488.65 427.07 479.228 439.65C479.228 439.65 477.281 436.464 472.723 440.652" stroke="#000072" stroke-width="3" stroke-miterlimit="10"/>
<path d="M530.438 460.17C530.438 460.17 528.358 451.693 520.697 457.983C520.697 457.983 516.244 447.36 505.201 454.175C505.201 454.175 502.611 443.416 491.134 450.424C491.134 450.424 487.743 442.233 476.313 448.053C476.313 448.053 473.638 442.873 468.85 448.51" stroke="#000072" stroke-width="3" stroke-miterlimit="10"/>
<path d="M530.441 470.335C530.441 470.335 526.066 461.207 518.593 467.119C518.593 467.119 511.608 457.221 501.513 465.127C501.513 465.127 497.696 455.477 487.991 462.065C487.991 462.065 483.025 451.425 472.721 458.944C472.721 458.944 470.833 453.335 463.342 457.983" stroke="#000072" stroke-width="3" stroke-miterlimit="10"/>
<path d="M528.633 478.582C528.633 478.582 526.054 469.556 515.852 477.042C515.852 477.042 508.9 465.456 498.52 474.033C498.52 474.033 494.032 462.228 484.519 471.872C484.519 471.872 481.519 462.268 470.192 469.566C470.192 469.566 468.534 462.051 463.699 468.499C458.864 474.948 462.421 468.379 462.421 468.379" stroke="#000072" stroke-width="3" stroke-miterlimit="10"/>
<path d="M525.894 487.537C525.894 487.537 522.203 477.46 513.104 485.372C513.104 485.372 507.411 477.144 495.722 482.341C495.722 482.341 488.656 473.852 480.462 482.337C480.462 482.337 474.882 473.708 467.556 480.896C467.556 480.896 464.702 466.736 457.814 480.421" stroke="#000072" stroke-width="3" stroke-miterlimit="10"/>
<path d="M520.311 494.525C520.311 494.525 520.086 485.32 510.27 492.724C510.27 492.724 503.801 483.693 492.415 492.184C492.415 492.184 486.258 482.892 477.932 492.712C477.932 492.712 472.259 483.706 465.223 492.424C465.223 492.424 465.001 477.411 455.504 489.18" stroke="#000072" stroke-width="3" stroke-miterlimit="10"/>
<path d="M515.679 502.317C515.679 502.317 514.218 497.295 506.377 501.175C506.377 501.175 497.861 494.777 489.444 501.01C489.444 501.01 484.585 494.177 475.692 500.3C475.692 500.3 468.374 493.919 463.346 500.034C463.346 500.034 463.79 488.618 453.119 497.384" stroke="#000072" stroke-width="3" stroke-miterlimit="10"/>
<path d="M510.029 508.416C510.029 508.416 508.826 502.746 502.314 508.416C502.314 508.416 494.918 503.444 486.605 509.45C486.605 509.45 478.422 504.265 473.158 509.45C473.158 509.45 467.518 501.801 461.55 509.45C461.55 509.45 459.724 499.343 453.959 507.673" stroke="#000072" stroke-width="3" stroke-miterlimit="10"/>
<path d="M505.053 511.333C505.053 511.333 502.353 508.861 499.644 512.44C499.644 512.44 488.834 509.262 484.519 515.643C484.519 515.643 479.875 510.581 471.558 515.643C471.558 515.643 467.494 508.168 461.401 515.643C461.401 515.643 458.043 505.705 451.75 515.643" stroke="#000072" stroke-width="3" stroke-miterlimit="10"/>
<path d="M419.27 463.238L440.846 442.437L457.817 413.642L459.918 407.251L474.162 423.039L475.28 430.882L467.558 439.65L463.345 450.423L461.548 463.238V470.12L461.402 474.713C461.402 474.713 454.034 509.457 457.817 523.13L392.104 524.761L389.961 520.706L400.694 499.851L412.475 472.182L419.27 463.238Z" fill="#000072"/>
<path d="M407.213 328.361C407.213 328.361 354.624 430.444 348.719 458.944" stroke="#000072" stroke-width="3" stroke-miterlimit="10"/>
<path d="M390.434 336.199C390.434 336.199 339.027 439.13 343.574 447.839" stroke="#000072" stroke-width="3" stroke-miterlimit="10"/>
<path d="M439.515 330.576C439.515 330.576 400.432 437.064 382.254 461.947" stroke="#000072" stroke-width="3" stroke-miterlimit="10"/>
<path d="M368.994 351.702C368.994 351.702 380.887 339.111 383.827 349.621C383.827 349.621 391.813 337.859 398.319 345.916C398.319 345.916 413.815 333.434 416.296 347.398C416.296 347.398 430.385 336.294 431.558 351.702C431.558 351.702 436.674 350.254 436.55 363.198C436.55 363.198 441.145 373.255 439.812 377.162" stroke="#000072" stroke-width="3" stroke-miterlimit="10"/>
<path d="M388.586 339.917C388.586 339.917 397.899 331.504 403.214 336.199C403.214 336.199 415.745 323.493 422.278 334.063C422.278 334.063 434.669 331.873 434.889 342.952C434.889 342.952 439.906 349.249 439.515 351.702C439.515 351.702 433.772 390.303 422.787 413.242C422.787 413.242 408.223 463.229 393.392 467.229" stroke="#000072" stroke-width="3" stroke-miterlimit="10"/>
<path d="M367.213 359.455C367.213 359.455 374.659 350.158 379.074 359.455C379.074 359.455 389.992 348.926 390.434 359.455C390.434 359.455 407.668 351.119 409.943 361.578C409.943 361.578 422.668 352.505 425.24 368.018C425.24 368.018 437.473 363.441 433.593 379.226C433.593 379.226 440.38 377.45 439.1 387.377" stroke="#000072" stroke-width="3" stroke-miterlimit="10"/>
<path d="M360.506 371.076C360.506 371.076 371.325 360.965 372.687 372.864C372.687 372.864 383.164 362.66 383.737 375.559C383.737 375.559 402.455 365.946 402.028 379.226C402.028 379.226 415.104 375.058 417.451 387.556C417.451 387.556 428.745 383.788 429.921 394.334C429.921 394.334 438.252 393.815 437.471 400.548" stroke="#000072" stroke-width="3" stroke-miterlimit="10"/>
<path d="M354.758 383.952C354.758 383.952 363.095 370.028 368.162 383.87C368.162 383.87 374.905 377.784 377.966 386.406C377.966 386.406 394.365 380.932 395.801 393.111C395.801 393.111 406.898 386.137 412.43 397.151C412.43 397.151 425.3 395.025 427.171 402.621C427.171 402.621 433.041 400.793 435.146 407.25" stroke="#000072" stroke-width="3" stroke-miterlimit="10"/>
<path d="M351.473 392.019C351.473 392.019 359.187 387.984 361.487 397.151C361.487 397.151 369.476 390.158 372.685 398.546C372.685 398.546 385.766 393.541 389.961 404.034C389.961 404.034 404.132 398.658 408.739 408.556C408.739 408.556 418.35 406.001 423.593 412.522C423.593 412.522 429.968 410.128 430.838 416.639" stroke="#000072" stroke-width="3" stroke-miterlimit="10"/>
<path d="M345.945 402.787C345.945 402.787 356.64 394.838 356.622 408.173C356.622 408.173 365.913 401.596 367.21 409.807C367.21 409.807 381.673 405.612 385.247 416.639C385.247 416.639 397.29 407.861 403.233 421.259C403.233 421.259 415.623 414.624 418.433 425.558" stroke="#000072" stroke-width="3" stroke-miterlimit="10"/>
<path d="M342 415.554C342 415.554 350.265 406.638 353.024 416.638C353.024 416.638 360.634 410.197 363.442 419.342C363.442 419.342 376.753 415.649 381.248 425.558C381.248 425.558 393.197 420.429 399.012 430.616C399.012 430.616 409.342 424.03 414.677 434.059" stroke="#000072" stroke-width="3" stroke-miterlimit="10"/>
<path d="M338.283 423.971C338.283 423.971 346.754 418.729 349.42 425.558C349.42 425.558 356.839 420.43 359.695 428.051C359.695 428.051 374.248 425.057 376.505 434.059C376.505 434.059 389.788 430.259 394.945 439.226C394.945 439.226 405.038 435.651 410.881 442.743C410.881 442.743 413.246 441.326 413.241 447.839" stroke="#000072" stroke-width="3" stroke-miterlimit="10"/>
<path d="M335.057 431.898C335.057 431.898 344.109 427.255 345.944 433.208C345.944 433.208 355.657 429.315 356.44 435.976C356.44 435.976 372.911 432.246 373.888 441.965C373.888 441.965 388.472 437.596 390.626 447.838C390.626 447.838 403.27 442.635 406.063 454.174C406.063 454.174 410.996 451.836 412.425 458.944" stroke="#000072" stroke-width="3" stroke-miterlimit="10"/>
<path d="M179.299 320.929C179.299 320.929 226.177 398.013 237.132 447.839" stroke="#000072" stroke-width="3" stroke-miterlimit="10"/>
<path d="M206.188 335.809C206.188 335.809 241.209 399.989 252.837 442.463" stroke="#000072" stroke-width="3" stroke-miterlimit="10"/>
<path d="M156.744 333.161C156.744 333.161 197.57 448.953 210.939 457.982" stroke="#000072" stroke-width="3" stroke-miterlimit="10"/>
<path d="M155.113 354.775C155.113 354.775 188.133 457.959 197.983 463.237" stroke="#000072" stroke-width="3" stroke-miterlimit="10"/>
<path d="M159.695 337.824C159.695 337.824 160.606 325.712 170.471 332.726C170.471 332.726 174.401 324.049 185.576 331.621C185.576 331.621 188.543 326.975 197.982 330.757" stroke="#000072" stroke-width="3" stroke-miterlimit="10"/>
<path d="M157.326 361.578C157.326 361.578 158.21 353.055 165.171 356.387C165.171 356.387 167.326 344.577 179.305 352.833C179.305 352.833 181.528 340.409 194.751 348.012C194.751 348.012 203.061 337.125 212.631 348.012C212.631 348.012 219.634 341.504 224.748 348.012" stroke="#000072" stroke-width="3" stroke-miterlimit="10"/>
<path d="M155.113 351.345C155.113 351.345 158.184 346.157 161.872 348.012C161.872 348.012 165.849 336.732 174.437 341.757C174.437 341.757 179.879 333.58 189.699 338.884C189.699 338.884 199.924 334.176 206.191 337.095" stroke="#000072" stroke-width="3" stroke-miterlimit="10"/>
<path d="M153.994 377.739C153.994 377.739 155.175 372.003 161.873 375.304C161.873 375.304 162.796 366.633 170.471 371.114C170.471 371.114 172.44 359.21 186.101 366.581C186.101 366.581 187.48 352.691 201.978 361.578C201.978 361.578 208.354 350.927 218.011 358.608C218.011 358.608 219.088 352.542 226.488 357.701" stroke="#000072" stroke-width="3" stroke-miterlimit="10"/>
<path d="M155.113 391.134C155.113 391.134 158.169 381.643 165.969 387.377C165.969 387.377 167.582 377.255 175.6 383.952C175.6 383.952 181.541 374.647 190.24 379.226C190.24 379.226 198.068 366.605 208.217 373.837C208.217 373.837 215.586 364.115 223.542 369.855C223.542 369.855 223.826 366.147 231.356 368.018" stroke="#000072" stroke-width="3" stroke-miterlimit="10"/>
<path d="M157.373 400.548C157.373 400.548 159.473 390.789 169.357 397.15C169.357 397.15 173.948 390.475 179.928 394.97C179.928 394.97 185.072 383.682 195.701 390.175C195.701 390.175 202.835 379.896 214.295 386.367C214.295 386.367 219.532 377.783 229.62 382.7C229.62 382.7 228.764 377.656 236.425 380.867" stroke="#000072" stroke-width="3" stroke-miterlimit="10"/>
<path d="M161.254 410.081C161.254 410.081 163.555 401.517 171.534 405.815C171.534 405.815 176.288 396.853 183.509 403.61C183.509 403.61 186.692 392.216 200.202 400.005C200.202 400.005 206.649 390.06 218.526 394.924C218.526 394.924 223.241 385.52 233.873 391.272C233.873 391.272 236.083 386.604 241.451 390.337" stroke="#000072" stroke-width="3" stroke-miterlimit="10"/>
<path d="M161.873 418.583C161.873 418.583 165.111 407.617 173.955 410.081C173.955 410.081 181.901 405.802 185.907 409.72C185.907 409.72 197.331 401.135 203.198 407.25C203.198 407.25 215.003 397.917 222.157 403.862C222.157 403.862 230.218 397.09 238.109 401.806C238.109 401.806 242.433 397.037 247.774 400.548" stroke="#000072" stroke-width="3" stroke-miterlimit="10"/>
<path d="M252.842 413.642C252.842 413.642 244.62 402.775 242.712 412.997C242.712 412.997 228.676 404.586 227.352 416.639C227.352 416.639 213.565 406.282 208.716 419.814C208.716 419.814 194.618 412.061 191.034 422.977C191.034 422.977 182.043 413.57 180.654 425.559C180.654 425.559 175.959 423.766 175.139 428.418" stroke="#000072" stroke-width="3" stroke-miterlimit="10"/>
<path d="M256.551 422.977C256.551 422.977 248.949 414.58 246.926 424.099C246.926 424.099 235.752 416.747 231.026 426.688C231.026 426.688 218.975 420.598 214.292 431.898C214.292 431.898 201.401 424.71 197.981 437.101C197.981 437.101 189.128 433.517 186.099 442.463C186.099 442.463 181.547 441.257 179.299 447.838" stroke="#000072" stroke-width="3" stroke-miterlimit="10"/>
<path d="M258.319 430.174C258.319 430.174 252.582 419.805 249.902 432.715C249.902 432.715 242.782 428.287 234.446 437.385C234.446 437.385 223.783 433.732 217.929 440.792C217.929 440.792 209.484 438.468 203.356 444.666C203.019 445.006 202.69 445.372 202.369 445.766" stroke="#000072" stroke-width="3" stroke-miterlimit="10"/>
<path d="M202.688 445.372C202.688 445.372 194.812 444.656 190.72 452.001C190.72 452.001 185.037 452.244 182.413 458.943C179.789 465.642 181.182 457.983 181.182 457.983" stroke="#000072" stroke-width="3" stroke-miterlimit="10"/>
<path fill-rule="evenodd" clip-rule="evenodd" d="M296.718 48.5712C387.184 48.5712 456.777 142.761 456.777 221.41C456.777 300.06 329.22 331.842 296.718 333.392C264.216 334.943 130.027 297.754 130.027 219.104C130.027 140.453 206.252 48.5712 296.718 48.5712Z" fill="#FF850B"/>
<path d="M296.72 52.396C206.502 52.396 133.853 143.595 133.853 219.104C133.853 238.739 142.773 257.203 160.368 273.985C199.558 311.365 271.062 329.611 294.704 329.613C295.354 329.613 295.963 329.6 296.538 329.572C313.667 328.755 353.128 319.937 387.228 302.892C417.213 287.904 452.955 261.602 452.955 221.41C452.955 143.251 384.709 52.396 296.72 52.396ZM294.801 337.26C269.439 337.26 196.349 318.873 155.091 279.521C135.925 261.24 126.205 240.912 126.205 219.104C126.205 179.736 145.061 135.863 176.645 101.745C210.177 65.522 253.942 44.7467 296.72 44.7467C339.765 44.7467 381.263 65.4358 413.572 103.003C443.021 137.244 460.603 181.508 460.603 221.41C460.603 256.317 436.412 286.859 390.646 309.735C355.551 327.277 314.7 336.364 296.902 337.213C296.245 337.245 295.542 337.26 294.801 337.26Z" fill="#000072"/>
<g opacity="0.5">
<g opacity="0.5">
<path opacity="0.5" fill-rule="evenodd" clip-rule="evenodd" d="M296.718 48.5719C352.318 48.5719 400.027 84.1558 428.547 129.838C428.844 131.315 429.13 132.797 429.38 134.291C403.342 96.11 362.743 70.9329 317.781 64.1413C320.664 65.2308 322.335 66.5247 322.335 67.9135C322.335 71.7955 309.265 74.9423 293.142 74.9423C277.022 74.9423 263.952 71.7955 263.952 67.9135C263.952 66.5247 265.62 65.2308 268.505 64.1413C223.541 70.9344 182.946 96.1129 156.908 134.291L157.052 133.486C187.076 85.9789 238.996 48.5719 296.718 48.5719Z" fill="white"/>
</g>
</g>
<path fill-rule="evenodd" clip-rule="evenodd" d="M452.478 245.577C429.983 306.656 325.657 332.013 296.715 333.393C268.069 334.76 160.46 306.028 135.318 245.353C137.246 212.303 154.031 203.271 185.071 219.421C197.836 226.061 210.822 232.988 221.111 227.714C279.843 197.601 315.705 203.278 355.905 227.714C374.703 239.142 393.05 222.095 404.56 216.898C441.219 200.34 458.038 211.921 452.478 245.577Z" fill="white"/>
<g opacity="0.300003">
<g opacity="0.300003">
<path opacity="0.300003" fill-rule="evenodd" clip-rule="evenodd" d="M456.083 207.676C456.538 212.292 456.779 216.878 456.779 221.411C456.779 224.308 456.586 227.132 456.252 229.904L456.286 229.075C451.818 281.563 346.158 321.639 289.316 324.875C241.867 327.577 147.1 276.483 131.166 229.075C131.195 230.058 131.246 231.039 131.29 232.019C130.478 227.843 130.029 223.543 130.029 219.104C130.029 215.571 130.189 212.01 130.49 208.431L130.738 207.664C167.779 260.937 228.544 292.702 293.416 292.702C358.281 292.702 419.041 260.939 456.083 207.676Z" fill="#000072"/>
</g>
</g>
<path fill-rule="evenodd" clip-rule="evenodd" d="M238.189 182.544C233.13 180.287 227.952 176.506 222.661 171.207C213.487 171.624 206.148 181.426 206.148 193.456C206.148 205.751 213.812 215.719 223.265 215.719C232.72 215.719 240.383 205.751 240.383 193.456C240.383 189.491 239.586 185.769 238.189 182.544Z" fill="#000072"/>
<path d="M381.844 161.581C375.67 169.785 369.599 176.129 363.634 180.613C354.858 187.209 345.359 188.364 344.307 181.099C349.027 180.558 353.947 178.363 359.063 174.518C371.674 165.038 375.617 158.934 381.844 161.581Z" fill="#000072"/>
<path fill-rule="evenodd" clip-rule="evenodd" d="M353.066 182.543C358.124 180.287 363.303 176.506 368.596 171.207C377.769 171.623 385.106 181.425 385.106 193.455C385.106 205.75 377.444 215.718 367.989 215.718C358.535 215.718 350.871 205.75 350.871 193.455C350.871 189.49 351.668 185.768 353.066 182.543Z" fill="#000072"/>
<path fill-rule="evenodd" clip-rule="evenodd" d="M360.915 187.784C358.138 187.784 355.889 190.182 355.889 193.139C355.889 196.097 358.138 198.495 360.915 198.495C363.69 198.495 365.939 196.097 365.939 193.139C365.939 190.182 363.69 187.784 360.915 187.784Z" fill="white"/>
<path fill-rule="evenodd" clip-rule="evenodd" d="M293.403 197.361C305.645 197.361 315.568 203.979 315.568 212.142C315.568 220.306 305.645 226.924 293.403 226.924C281.161 226.924 271.238 220.306 271.238 212.142C271.238 203.979 281.161 197.361 293.403 197.361Z" fill="#000072"/>
<path d="M314.598 245.038C306.797 245.038 299.25 242.136 293.459 236.95C286.992 242.841 278.077 245.582 269.314 244.188C259.135 242.57 250.503 235.592 246.784 225.975C246.022 224.005 247.001 221.79 248.971 221.028C250.939 220.267 253.153 221.246 253.916 223.216C256.655 230.3 263.015 235.442 270.514 236.634C278.017 237.826 285.656 234.911 290.456 229.028C291.173 228.149 292.243 227.634 293.377 227.622C294.52 227.623 295.59 228.101 296.327 228.964C301.334 234.833 308.898 237.951 316.593 237.305C324.279 236.66 331.229 232.322 335.187 225.7C336.27 223.886 338.621 223.295 340.43 224.38C342.242 225.463 342.834 227.812 341.75 229.625C336.532 238.356 327.367 244.077 317.233 244.927C316.353 245.002 315.474 245.038 314.598 245.038Z" fill="#000072"/>
<path fill-rule="evenodd" clip-rule="evenodd" d="M293.42 231.447C301.391 239.025 309.221 242.249 316.914 241.117C318.817 291.07 268.193 289.035 269.916 240.411C279.347 241.609 287.179 238.622 293.42 231.447Z" fill="#000072"/>
<path d="M273.722 244.494C274.101 257.222 278.614 267.229 286.131 271.681C291.097 274.621 296.708 274.662 301.528 271.791C308.724 267.504 312.862 257.908 313.128 245.149C306.622 244.941 300.086 242.124 293.613 236.739C288.042 241.897 281.435 244.495 273.896 244.495C273.839 244.495 273.78 244.495 273.722 244.494ZM293.989 281.55C289.972 281.55 285.935 280.454 282.235 278.263C271.35 271.816 265.467 257.97 266.094 240.275L266.243 236.09L270.396 236.617C278.561 237.652 285.138 235.139 290.534 228.936L293.157 225.921L296.053 228.674C303.192 235.462 309.841 238.295 316.357 237.332L320.572 236.712L320.734 240.971C321.403 258.544 315.829 272.173 305.441 278.363C301.874 280.488 297.942 281.55 293.989 281.55Z" fill="#000072"/>
<path fill-rule="evenodd" clip-rule="evenodd" d="M293.841 259.071C287.034 259.071 280.64 262.331 276.643 267.837C285.846 280.947 302.164 281.162 310.956 267.726C306.952 262.286 300.599 259.071 293.841 259.071Z" fill="#FF0066"/>
<path d="M281.59 267.924C285.135 271.833 289.593 273.952 294.219 273.909C298.69 273.836 302.815 271.725 306.06 267.903C302.827 264.73 298.425 262.895 293.837 262.895C289.231 262.895 284.825 264.736 281.59 267.924ZM293.981 281.561C286.107 281.561 278.663 277.376 273.51 270.034L271.941 267.799L273.546 265.589C278.248 259.112 285.833 255.246 293.837 255.246C301.776 255.246 309.325 259.063 314.031 265.458L315.605 267.597L314.152 269.82C309.353 277.152 302.134 281.43 294.344 281.557C294.223 281.559 294.102 281.561 293.981 281.561Z" fill="#000072"/>
<path fill-rule="evenodd" clip-rule="evenodd" d="M438.16 141.379C413.605 100.789 384.165 73.3088 349.838 58.9415C417.173 -35.4411 446.613 -7.96207 438.16 141.379Z" fill="#FF850B"/>
<path d="M355.707 57.3356C385.843 71.0941 412.445 95.2112 434.95 129.164C439.056 37.1444 426.579 12.6552 415.101 8.61716C406.341 5.53767 388.974 11.6615 355.707 57.3356ZM441.278 153.922L434.888 143.359C410.874 103.665 381.762 76.4499 348.361 62.4694L343.941 60.6197L346.724 56.7191C377.525 13.5461 400.714 -4.55528 417.638 1.40125C439.226 8.99692 446.959 53.5443 441.976 141.595L441.278 153.922Z" fill="#000072"/>
<path fill-rule="evenodd" clip-rule="evenodd" d="M343.995 146.316C349.658 143.994 355.367 144.835 356.745 148.197C358.123 151.559 354.649 156.169 348.987 158.493C343.324 160.815 337.615 159.972 336.237 156.61C334.859 153.249 338.334 148.639 343.995 146.316Z" fill="white"/>
<path fill-rule="evenodd" clip-rule="evenodd" d="M245.327 146.092C239.664 143.768 233.955 144.611 232.577 147.973C231.199 151.335 234.672 155.944 240.335 158.267C245.997 160.589 251.706 159.747 253.084 156.386C254.462 153.024 250.989 148.414 245.327 146.092Z" fill="white"/>
<path fill-rule="evenodd" clip-rule="evenodd" d="M225.786 187.784C223.009 187.784 220.76 190.182 220.76 193.139C220.76 196.097 223.009 198.495 225.786 198.495C228.561 198.495 230.81 196.097 230.81 193.139C230.81 190.182 228.561 187.784 225.786 187.784Z" fill="white"/>
<path fill-rule="evenodd" clip-rule="evenodd" d="M151.229 143.312C175.782 102.721 205.223 75.2424 239.549 60.8736C172.215 -33.5089 142.775 -6.0284 151.229 143.312Z" fill="#FF850B"/>
<path d="M178.374 9.881C176.837 9.881 175.481 10.1299 174.285 10.5509C162.808 14.5892 150.331 39.0778 154.437 131.098C176.941 97.1456 203.542 73.0285 233.679 59.2686C204.955 19.8322 188.083 9.881 178.374 9.881ZM148.11 155.857L147.412 143.529C142.427 55.4781 150.16 10.9309 171.748 3.33459C188.661 -2.6147 211.858 15.4763 242.661 58.6521L245.444 62.5526L241.025 64.4023C207.622 78.3843 178.51 105.6 154.5 145.293L148.11 155.857Z" fill="#000072"/>
<g opacity="0.649994">
<g opacity="0.649994">
<path opacity="0.649994" fill-rule="evenodd" clip-rule="evenodd" d="M231.121 64.7236C233.899 63.3495 236.713 62.0673 239.559 60.8742C197.827 2.3778 170.658 -9.28596 158.037 25.8358C171.478 1.13865 195.837 14.0995 231.117 64.7207L231.121 64.7236Z" fill="white"/>
</g>
</g>
<path fill-rule="evenodd" clip-rule="evenodd" d="M169.616 115.797C181.585 100.988 195.15 88.1695 210.313 77.3449C176.324 11.1349 162.757 23.9519 169.616 115.797Z" fill="#000072"/>
<path d="M178.364 39.5674C178.196 39.5674 178.082 39.5897 178.015 39.6085C177.606 39.7238 173.973 41.2212 172.419 58.0839C171.372 69.4456 171.495 85.5787 172.783 106.127C182.665 94.9422 193.599 84.9048 205.405 76.1828C187.521 41.9882 180.102 39.5674 178.364 39.5674ZM166.522 125.707L165.804 116.081C160.585 46.1928 168 34.483 175.943 32.2454C185.441 29.5632 196.742 42.5334 213.715 75.5969L215.225 78.5376L212.535 80.4575C197.73 91.0265 184.29 103.725 172.589 118.201L166.522 125.707Z" fill="#000072"/>
<g opacity="0.300003">
<g opacity="0.300003">
<path opacity="0.300003" fill-rule="evenodd" clip-rule="evenodd" d="M174.028 37.951C161.624 47.2299 153.613 72.3343 149.994 113.262C150.212 122.661 150.623 132.676 151.224 143.312C153.058 139.994 154.998 136.714 157.047 133.485L156.904 134.29C166.812 119.173 177.47 106.067 188.874 94.971C182.205 101.263 175.921 108.037 170.021 115.291C169.905 115.433 169.79 115.574 169.674 115.719C169.664 115.731 169.654 115.744 169.642 115.761C169.631 115.773 169.623 115.785 169.612 115.796C166.289 71.2954 167.761 45.3474 174.028 37.951ZM415.348 36.0168C427.753 45.2969 435.764 70.4001 439.381 111.327C439.164 120.726 438.753 130.743 438.153 141.378C436.317 138.06 434.377 134.781 432.328 131.551L432.472 132.356C422.565 117.239 411.907 104.133 400.501 93.0383C407.172 99.3303 413.454 106.104 419.354 113.358C419.47 113.499 419.586 113.641 419.701 113.785C419.712 113.798 419.722 113.812 419.734 113.826C419.744 113.84 419.753 113.85 419.763 113.864C423.089 69.3625 421.614 43.413 415.348 36.0168Z" fill="#000072"/>
</g>
</g>
<g opacity="0.649994">
<g opacity="0.649994">
<path opacity="0.649994" fill-rule="evenodd" clip-rule="evenodd" d="M358.282 62.7891C355.504 61.4149 352.69 60.1328 349.844 58.9411C391.576 0.444702 418.746 -11.2206 431.367 23.9012C417.927 -0.795948 393.566 12.1662 358.287 62.7876L358.282 62.7891Z" fill="white"/>
</g>
</g>
<path fill-rule="evenodd" clip-rule="evenodd" d="M419.767 113.864C407.798 99.0537 394.233 86.2353 379.07 75.4105C413.059 9.20073 426.627 22.0189 419.767 113.864Z" fill="#000072"/>
<path d="M383.981 74.2486C395.789 82.9721 406.724 93.0106 416.603 104.194C417.891 83.6452 418.014 67.5125 416.967 56.1504C415.412 39.2876 411.781 37.7898 411.372 37.6748C410.616 37.4653 403.589 36.7592 383.981 74.2486ZM422.863 123.775L416.797 116.268C405.099 101.794 391.66 89.0949 376.852 78.5234L374.162 76.6035L375.672 73.663C392.644 40.6019 403.935 27.6323 413.444 30.312C421.386 32.5493 428.802 44.2593 423.582 114.149L422.863 123.775Z" fill="#000072"/>
<path d="M178.374 9.88045C176.837 9.88045 175.481 10.1293 174.285 10.5504C162.807 14.5887 150.329 39.0779 154.436 131.098C176.941 97.1451 203.541 73.0275 233.678 59.268C204.954 19.8316 188.083 9.88045 178.374 9.88045ZM148.107 155.856L147.409 143.529C142.426 55.4775 150.16 10.9297 171.747 3.33405C188.661 -2.61525 211.858 15.4757 242.661 58.6515L245.444 62.5521L241.025 64.4018C207.621 78.3838 178.51 105.599 154.498 145.293L148.107 155.856Z" fill="#000072"/>
<path d="M296.72 52.396C206.502 52.396 133.853 143.595 133.853 219.104C133.853 238.739 142.773 257.203 160.368 273.985C199.558 311.365 271.062 329.611 294.704 329.613C295.354 329.613 295.963 329.6 296.538 329.572C313.667 328.755 353.128 319.937 387.228 302.892C417.213 287.904 452.955 261.602 452.955 221.41C452.955 143.251 384.709 52.396 296.72 52.396ZM294.801 337.26C269.439 337.26 196.349 318.873 155.091 279.521C135.925 261.24 126.205 240.912 126.205 219.104C126.205 179.736 145.061 135.863 176.645 101.745C210.177 65.522 253.942 44.7467 296.72 44.7467C339.765 44.7467 381.263 65.4358 413.572 103.003C443.021 137.244 460.603 181.508 460.603 221.41C460.603 256.317 436.412 286.859 390.646 309.735C355.551 327.277 314.7 336.364 296.902 337.213C296.245 337.245 295.542 337.26 294.801 337.26Z" fill="#000072"/>
<g opacity="0.559998">
<g opacity="0.559998">
<path opacity="0.559998" fill-rule="evenodd" clip-rule="evenodd" d="M300.62 203.284C303.962 204.166 306.435 205.773 306.145 206.876C305.854 207.977 302.91 208.156 299.567 207.274C296.225 206.394 293.75 204.786 294.041 203.683C294.331 202.582 297.277 202.402 300.62 203.284Z" fill="white"/>
</g>
</g>
<path d="M212.189 161.581C218.365 169.785 224.436 176.129 230.401 180.613C239.177 187.209 248.677 188.364 249.729 181.099C245.008 180.558 240.089 178.363 234.971 174.518C222.361 165.038 218.417 158.934 212.189 161.581Z" fill="#000072"/>
<path d="M355.707 57.3356C385.843 71.0941 412.445 95.2112 434.95 129.164C439.056 37.1444 426.579 12.6552 415.101 8.61716C406.341 5.53767 388.974 11.6615 355.707 57.3356ZM441.278 153.922L434.888 143.359C410.874 103.665 381.762 76.4499 348.361 62.4694L343.941 60.6197L346.724 56.7191C377.525 13.5461 400.714 -4.55528 417.638 1.40125C439.226 8.99692 446.959 53.5443 441.976 141.595L441.278 153.922Z" fill="#000072"/>
</svg>
